<?xml version="1.0" standalone="no"?>
<!DOCTYPE svg PUBLIC "-//W3C//DTD SVG 1.1//EN" "http://www.w3.org/Graphics/SVG/1.1/DTD/svg11.dtd" >
<svg xmlns="http://www.w3.org/2000/svg">
<metadata>
Created by FontForge 20120731 at Sat Apr 22 10:43:32 2017
 By admin
</metadata>
<defs>
<font id="iconfont" horiz-adv-x="1024" >
  <font-face 
    font-family="iconfont"
    font-weight="500"
    font-stretch="normal"
    units-per-em="1024"
    panose-1="2 0 6 3 0 0 0 0 0 0"
    ascent="896"
    descent="-128"
    x-height="792"
    bbox="-1001 -128.556 1258 900"
    underline-thickness="0"
    underline-position="0"
    unicode-range="U+0078-E656"
  />
<missing-glyph 
 />
    <glyph glyph-name=".notdef" 
 />
    <glyph glyph-name=".notdef" 
 />
    <glyph glyph-name=".null" horiz-adv-x="0" 
 />
    <glyph glyph-name="nonmarkingreturn" horiz-adv-x="341" 
 />
    <glyph glyph-name="x" unicode="x" horiz-adv-x="1001" 
d="M281 543q-27 -1 -53 -1h-83q-18 0 -36.5 -6t-32.5 -18.5t-23 -32t-9 -45.5v-76h912v41q0 16 -0.5 30t-0.5 18q0 13 -5 29t-17 29.5t-31.5 22.5t-49.5 9h-133v-97h-438v97zM955 310v-52q0 -23 0.5 -52t0.5 -58t-10.5 -47.5t-26 -30t-33 -16t-31.5 -4.5q-14 -1 -29.5 -0.5
t-29.5 0.5h-32l-45 128h-439l-44 -128h-29h-34q-20 0 -45 1q-25 0 -41 9.5t-25.5 23t-13.5 29.5t-4 30v167h911zM163 247q-12 0 -21 -8.5t-9 -21.5t9 -21.5t21 -8.5q13 0 22 8.5t9 21.5t-9 21.5t-22 8.5zM316 123q-8 -26 -14 -48q-5 -19 -10.5 -37t-7.5 -25t-3 -15t1 -14.5
t9.5 -10.5t21.5 -4h37h67h81h80h64h36q23 0 34 12t2 38q-5 13 -9.5 30.5t-9.5 34.5q-5 19 -11 39h-368zM336 498v228q0 11 2.5 23t10 21.5t20.5 15.5t34 6h188q31 0 51.5 -14.5t20.5 -52.5v-227h-327z" />
    <glyph glyph-name="chrome" unicode="&#xe643;" 
d="M461 896h53l20 -4q-34 -87 -44 -172l5 1q1 2 8 14q43 67 107 90q97 36 198 -26q103 -64 158 -193q2 -5 32 -91q-87 4 -129 -4q2 -2 6 -3.5t4 -2.5q7 -3 22 -10.5t26 -13.5t20 -13q98 -80 71 -221q-24 -124 -135 -223q-10 -9 -22.5 -18.5t-28.5 -21.5t-25 -19
q-25 101 -72 182l-2 -5q0 -2 1 -7t1 -6q14 -107 -45 -177q-65 -78 -181 -80q-155 -2 -293 114q0 1 -5 7q79 50 129 108q-7 0 -15 -3q-81 -37 -153 -15q-101 30 -146 145q-43 108 -15 237q1 5 28 100q76 -65 151 -96q-2 5 -9 13q-65 78 -56 166q10 87 86 153q75 65 189 86
q3 1 61 9zM407 378q0 -47 31.5 -79t78.5 -32q46 0 78 32.5t32 79.5q0 46 -32 78.5t-79 32.5q-46 0 -77.5 -32t-31.5 -80z" />
    <glyph glyph-name="icon-test" unicode="&#xe644;" 
d="M958 761q-43 22 -104 28h-27q193 -159 197 -397q3 -204 -138 -358q-66 -71 -156.5 -113t-187 -48.5t-197 27t-182.5 107.5q-8 -52 2 -113q-27 31 -41 66q-23 54 -30 116q-1 12 -8 23q-65 98 -81 210q-11 79 2 157q40 233 243 358q102 62 227 71q132 9 253 -47
q10 -5 23 -5q78 0 150 -31q34 -14 55 -51zM181 115q-9 -43 -9 -49q-2 -10 4 -15q94 -94 220 -124q116 -28 230 2q150 39 249 159q61 75 88 168q19 65 18 135q0 69 -21 136q-50 157 -189 251q-7 4 -19 2q-22 -3 -48 -13t-39 -17t-44 -24q-44 -25 -122 -88q-9 -7 -16 -7
q-101 -11 -161 -94q-2 -2 -29 -49h428q-52 125 -184 143l8 6q72 52 78 56q16 11 83 50q11 7 20 1q104 -61 154 -172q35 -77 41 -170v-74h-634q5 -62 43 -106q63 -75 178 -76q105 -1 189 72q6 6 14 2q2 -1 104 -49q5 -2 53 -25l-6 -11q-79 -109 -198 -143q-126 -37 -252 -11
t-208 109q-1 1 -23 25zM93 164l2 11q2 10 5 29t6 33.5t8 26.5q46 112 154 245q4 4 37 45q-54 -35 -83 -69q-48 -57 -67 -84q-5 -7 -58 -91l-2 12q-14 87 7 172q32 132 140 219t245 91q43 1 48 2q14 3 29 6.5t33.5 8t28.5 7.5q2 0 30 5q-62 22 -131 24t-136.5 -15t-132.5 -58
t-114 -101q-49 -61 -76 -133t-29 -140.5t12 -131.5t44 -114z" />
    <glyph glyph-name="-o" unicode="&#xe645;" 
d="M337 346h8.5h10h8.5q434 -1 515 -1q24 0 28.5 4.5t4.5 28.5q5 248 -221 373q-26 15 -44 -2q-21 -19 -66 -58.5t-68 -60.5q0 -1 -11 -17q120 -16 164 -145l-24 -2h-272q-20 0 -24 6t5 22q24 42 56 79q12 13 36.5 35t32.5 30q130 132 272 192q-20 9 -78 36q116 50 203 15
q67 -27 79 -113q-23 40 -54.5 58.5t-66.5 18t-79 -15.5q207 -127 245 -351q27 -160 -47 -298q-41 -78 -99 -133.5t-124 -84.5t-134.5 -39.5t-141.5 -3.5q14 7 52.5 35.5t67.5 33.5q234 40 320 263q7 19 3 25.5t-24 6.5q-122 1 -192 -1q-14 0 -34 -21q-8 -7 -23.5 -26.5
t-25.5 -28.5q-56 -51 -131 -28q-51 16 -90 67.5t-37 100.5zM658 865q-92 -56 -105 -63t-39 -6q-95 1 -179 -38.5t-140 -105.5t-81 -155t-8 -183q0 -1 11 -37q7 14 21 40.5t24 45.5t20 35q31 50 79 101q-9 -17 -30 -54t-36.5 -65t-27.5 -55t-23.5 -57t-24.5 -69t-19 -56
q-32 36 -52.5 93.5t-26.5 126.5t11.5 147.5t59.5 145.5q49 78 121 132.5t148.5 77.5t154 23t142.5 -24zM187 136q125 -148 317 -154q-21 -30 -61.5 -44.5t-72.5 -4.5q-97 31 -177 96q-23 19 -20 45q1 6 7 58q4 2 7 4zM376 -100q-43 -28 -105 -28t-102 28t-57.5 87t-3.5 119
q7 -13 23 -29.5t27 -32.5t13 -35q8 -66 51.5 -96.5t115.5 -19.5q2 0 38 7z" />
    <glyph glyph-name="baidu" unicode="&#xe646;" 
d="M1024 393q-1 -110 -41 -206t-107.5 -164t-160 -108.5t-196.5 -42.5t-199.5 38t-164.5 109t-111 163.5t-44 197.5t37.5 198.5t108 165.5t165 111.5t202.5 40.5t200.5 -41t161.5 -108t107 -160t42 -194zM823 692l-6 6q-18 -8 -19 -9q-124 -87 -153 -109q-19 -15 -43 -4
q-101 46 -194 -8q-73 -42 -95.5 -118t15.5 -152q9 -19 -4 -38q-38 -51 -93 -129q-2 -3 -2.5 -6.5t-1 -8t-0.5 -6.5q2 0 6.5 0.5t8 1t6.5 2.5q78 54 124 87q14 11 24 12.5t27 -7.5q14 -9 46 -15q130 -23 206 76q76 100 22 214q-4 8 -4 21t5 20q9 14 19.5 28.5t24.5 31.5
t21 27q5 6 60 83z" />
    <glyph glyph-name="browser-o" unicode="&#xe647;" 
d="M0 344v80l3 12q15 139 105 249q101 123 255.5 169t306.5 -4q263 -86 338 -348q3 -13 6 -27.5t5.5 -33.5t4.5 -28v-62q-3 -11 -3 -12q-12 -133 -94 -241q-63 -84 -151 -135.5t-182 -64t-187 4t-175 68.5t-137 130q-52 74 -72 137q-5 16 -8.5 33t-8 39.5t-6.5 33.5v0z
M487 598h-171q-3 0 -7 -4t-4 -8q-16 -74 -25 -124q0 -3 -3 -55h210v191zM278 359l-1 -7q4 -29 13 -85.5t14 -84.5q2 -13 17 -13h76.5h75.5q1 0 14 2v188h-209zM736 407q-5 106 -32 190h-167v-190h199zM735 359h-199v-190q124 0 161 1q3 0 6.5 3t3.5 6q26 91 28 180zM758 598
q20 -153 23 -181q0 -5 3 -7.5t5 -3t8 -0.5h165l13 2q-5 95 -53 184q-4 6 -12 6h-152zM786 359l-29 -190q115 0 126 -1q21 -1 33 7t20 28q36 87 38 156h-188zM256 598h-143q-8 0 -13 -10q-35 -62 -46 -129q0 -3 -6 -52h178q4 25 14 90t16 101zM255 169l-29 190h-178
q6 -96 52 -181q5 -8 11 -8q33 -1 144 -1zM486 -63v186h-162q34 -92 95 -169q6 -8 13 -9t54 -8zM323 644h164v184q-42 -4 -46 -5q-15 -2 -21 -9q-60 -75 -97 -170zM689 125h-136q-11 0 -15 -4t-3 -16v-147l1 -18q47 -4 70 29q56 84 83 156zM536 643h152l-6 18l-36 63t-42 76
q-11 19 -26.5 23.5t-41.5 3.5v-184zM889 125q-114 0 -141 -1q-8 0 -14 -13q-9 -17 -26 -53t-26 -54q-1 -2 -27 -44q143 47 234 165zM886 643q-25 46 -104 102t-121 58q11 -23 38.5 -76t42.5 -84h144zM351 -33q-38 67 -40 72q-6 13 -17 38.5t-18 37.5q-4 9 -18 10h-100h-22
q30 -48 98 -97.5t117 -60.5zM348 800q-129 -47 -213 -158q104 0 131 1q7 0 10 8q17 34 72 149z" />
    <glyph glyph-name="edge" unicode="&#xe648;" 
d="M502 896h14q31 -4 32 -4q86 -2 168 -41q177 -84 239 -260q5 -16 9.5 -34t7.5 -32t5 -35.5t3 -32.5t1.5 -36t0.5 -33v-36v-34q0 -12 -6 -15.5t-18 -3.5q-132 1 -580 1h-37q-5 -23 4 -55t23 -53q56 -91 192 -106q168 -19 305 53q1 1 31 9v-182q1 -23 -21 -33
q-101 -49 -209 -58q-88 -6 -159.5 2t-136.5 43q-151 79 -195 229q-39 135 2.5 258t167.5 204q2 1 45 24q-25 -45 -38.5 -79.5t-14.5 -72.5h362q7 67 -24.5 126t-98.5 79q-61 18 -146 7q-166 -23 -288 -136q-15 -14 -31 -30.5t-37 -39t-32 -33.5q4 32 4 33q4 12 15.5 47.5
t20.5 59t20 44.5q93 190 308 241q4 1 92 15z" />
    <glyph glyph-name="chrome-o" unicode="&#xe649;" 
d="M552 -128h-80q-70 13 -74 14q-286 72 -376 352q-5 15 -8.5 32.5t-7.5 40t-6 33.5v80q13 70 14 74q77 300 375 382q3 1 83 16h80q70 -13 74 -14q286 -72 376 -352q5 -15 8.5 -32.5t7.5 -40t6 -33.5v-80q-13 -69 -14 -72q-76 -302 -375 -384q-3 -1 -83 -16zM629 564
q11 -11 11 -12q65 -50 80.5 -127t-25.5 -148q-9 -15 -204 -349q-1 -1 -10 -18q18 -1 19 -1q10 1 33 2.5t40.5 3t32.5 4.5q70 14 131.5 47t108 79.5t80 106t49 123.5t12 134t-27.5 137q-7 18 -28 18h-255h-47zM298 397q9 41 9 43q22 72 78 114t131 42h400h20l-6 14
q-120 210 -347 243q-259 37 -437 -166q-11 -13 -2 -28q14 -24 144 -246q0 -1 10 -16zM117 642l-6 -3q-15 -21 -20 -46q-45 -68 -54 -158.5t23 -193.5q86 -264 368 -325q16 -4 25 11q16 28 148 254l4 10q-19 -6 -20 -6q-46 -11 -51 -12q-138 -9 -207 108q-3 5 -164 282
q-3 4 -46 79zM335 383q0 -73 52 -124.5t125 -51.5q74 0 125.5 52.5t51.5 125.5q-1 73 -52.5 124.5t-124.5 51.5q-74 0 -125.5 -52t-51.5 -126z" />
    <glyph glyph-name="ie" unicode="&#xe64a;" 
d="M324 641q-121 -75 -206 -187l-6 3q3 9 8.5 27.5t10.5 32.5t11 26q124 266 419 280q24 1 44 9q113 46 203 53q61 4 108 -9q56 -16 81.5 -64t12.5 -112q-4 -20 -15.5 -56.5t-14.5 -50.5q-5 -20 2 -36q49 -109 41 -231q-1 -15 -6.5 -20.5t-20.5 -5.5q-122 1 -597 1h-32
q4 -31 4 -32q30 -128 154 -157q128 -30 210 77q16 21 42 20h193h28q-12 -31 -13 -32q-37 -85 -103.5 -147.5t-147 -94.5t-172 -32t-176.5 36q-24 10 -50 -2q-40 -19 -61.5 -28t-57 -18t-67.5 -9q-78 1 -117 44t-32 121q15 151 107 306q71 121 204 264q0 1 17 19q-2 3 -5 5z
M773 439q-11 80 -72.5 130.5t-143.5 45.5q-72 -4 -128 -57t-58 -119h402zM329 -33q-133 83 -193 226q-28 -43 -41.5 -91t-8.5 -87q6 -51 44 -78t88 -14q16 5 33 11.5t41 16.5t37 16zM957 602q23 84 24 89q8 39 -6 72t-44 49q-34 18 -96 9.5t-92 -34.5q132 -58 214 -185z" />
    <glyph glyph-name="browser" unicode="&#xe64b;" 
d="M634 589q10 -32 10 -34q6 -21 -7 -40q-12 -18 -18 -25q-22 -30 -32 -74q-9 -37 -3 -72q3 -15 -1 -40q-2 -10 -7.5 -38.5t-7.5 -43.5q0 -12 0.5 -17t2 -17t1.5 -18q-23 -26 -26 -30q-1 -1 -3.5 -7t-4.5 -7q-8 -3 -23 -1q-12 2 -19 7q-22 14 -53 13q-61 -1 -97 0
q-9 0 -40 9q-4 1 -48 14q-4 32 -32 53q-3 3 -2 7q4 23 -8 42q-1 1 -2 3.5t-2 4.5q-12 18 2 38q30 39 41 102q5 25 28 32q48 14 89 12q52 -3 87 30q12 11 24.5 19.5t35 21t26.5 14.5q36 21 62 40q5 3 9 3.5t10 -0.5t8 -1zM360 733q-14 -27 6 -47q-17 -14 -30 -44
q-4 -10 -23 -41q-3 -3 -9 -6q-15 -6 -15 -21q1 -23 -14 -39q-7 -7 -12 -16.5t-7 -16t-5.5 -19.5t-4.5 -18q-7 -21 -29 -31q-26 -11 -56 -12q-36 -1 -62 -3q-28 -3 -79 10q-19 5 -17 24q21 144 112 256q6 7 15 7q13 1 38 2.5t37 2.5h31.5t32.5 1q6 0 56 6q2 1 35 5zM654 593
q31 -22 47 -46q9 -14 26 -14q29 -1 30 -31q0 -20 14 -31q5 -5 54 -44q-11 -26 7 -49q-10 -34 -10 -37q-8 -27 -31 -33q-7 -2 -15 -13q-1 -1 -8 -17q-8 -19 -27 -18q-8 0 -9 -3q-1 -8 3 -11q12 -11 -4 -16q-22 -8 -32 -8q-18 -1 -23.5 -5.5t-6.5 -21.5q-1 -20 -23 -17
q-5 0 -55 3q-15 23 -5 56q16 49 7 126q-7 56 23 105q8 14 17 19q23 13 23 44q0 5 -2 62zM691 126q24 -7 56 4q34 11 84 23q28 7 40 25q11 15 27 13q4 -1 7 4q3 4 17 25q18 -13 25 -18q7 -57 8 -70q0 -4 -3 -10q-80 -132 -220 -200q-28 -14 -48 8q-4 4 -17 28q-1 1 -14 27
q-4 9 -4 10q-2 21 -23 53l-7 12q63 14 72 66zM832 786l61 -61q8 -9 11 -31q3 -13 8 -64q6 -57 -19 -100q-5 -8 -44 -87q-2 -4 -6 -4.5t-7 3.5q-9 13 -12 21q-11 26 -32 43q-13 10 -20 30q-10 29 -41 34q-21 3 -36 19q-4 4 -43 46q55 56 62 63q23 24 26 28q27 33 65 47
q1 0 27 13zM695 -94q-214 -77 -420 23q5 5 3 10t-4.5 7.5t-8 6.5t-7.5 6q39 2 40 2q47 3 84 26q8 4 23 10q23 9 33 21q13 18 32 2q20 -16 31 7q2 5 2 6q9 33 55 40q2 1 7 -1q30 -9 38 -12q6 -2 8 -6q9 -14 13 -26q2 -5 5 -14.5t4 -10.5q3 -11 8 -23l3 -7.5t4 -11.5
q5 -32 37 -48q4 -2 9 -5zM458 758q30 23 34 26q11 9 13 12q26 43 88 54q6 1 18 4t18 4q14 3 53 9l5 -2q68 -24 130 -70l1 -1q-41 -24 -44 -26q-27 -14 -69 -59q-2 -2 -60 -66l-3 -3q-2 0 -8 0.5t-9 0.5q-6 -1 -10 8q0 1 -1 2q-10 24 -34 19q-14 -4 -16 8q-1 4 -8 5
q-40 4 -76 28q9 31 -22 47zM605 598q-8 -5 -21 -15t-24 -17t-23 -12q-12 -4 -42 -23q-8 -5 -30.5 -20.5t-35.5 -23.5q-12 -7 -36 -11q-35 -6 -102 -15h-23q19 58 38 88q46 73 51 79q5 7 12 14t17.5 16.5t13.5 13.5q1 1 4 1h3q6 2 22 6l24 6q7 2 10 1q67 -30 95 -43
q11 -5 18 -18q1 -1 3 -5t3 -5t3 -4t4 -4t4.5 -2t6.5 -2zM937 673q38 -71 40 -75q55 -119 46 -250q-1 -14 -19 -35q-8 -9 -36 -41l-6 -6q-16 9 -17 10q-4 3 -6 10q-2 5 -8 25.5t-10 31.5q-13 38 -43 50q-4 2 -4 7q-1 20 -16 35q24 38 27 42q5 9 18 27q10 13 12 38q0 17 7 35
t3 32q-11 35 12 64zM546 94q-54 -44 -62 -50q-2 -2 -25 -9q-2 0 -16 -4t-21 -7q-13 -5 -40 -18.5t-42 -19.5q-39 -17 -90 1q-7 3 -15 15q-6 8 -15.5 22.5t-13.5 20.5q-9 15 -7 34.5t15 31.5q1 0 5 1q25 7 38 30q0 1 2 2q20 -14 58 -18q3 0 68 -9q15 -1 19 9q1 1 5 1.5
t6 -0.5q21 -11 53 -7q9 1 28 -4q65 -17 119 -51q-72 34 -69 29zM614 885q-24 -7 -25 -7l-72 -30q-15 -6 -28 -22q-6 -8 -49 -53q-7 -8 -23 -9q-24 -2 -45 -18q-6 -4 -13 -4q-18 0 -58 2q-8 0 -11 2q-29 14 -69 -1q-27 -11 -47 -1l-16 11q81 76 185 113q68 24 144.5 27.5
t126.5 -10.5zM0 430q19 -14 42.5 -17t42.5 0q10 1 28.5 -1t26.5 -2q10 0 50 5q2 1 34 6q-4 -14 -4 -15t-2.5 -13.5t-4.5 -19.5q-6 -23 -9 -27q-33 -38 -21 -89q0 -1 2 -21q-27 -2 -42 -20q-1 -1 -4 -1q-33 7 -55.5 17.5t-38.5 32.5q-4 5 -28 37q-17 23 -17 45v83v0zM872 378
q20 -20 21 -22q27 -37 34 -75q1 -3 -2 -13q-1 -3 -2.5 -8t-3 -9.5t-1.5 -8.5q0 -11 -8 -19q-31 -30 -74 -32q-24 -1 -43 -16q-21 -16 -51 -16q-10 0 -29 -2.5t-24 -2.5q-1 0 -14 4q15 35 58 50q7 2 21.5 6.5t20.5 6.5q1 0 9 7l-8 7q-13 7 -6 19q3 4 10 10q5 4 17 14.5
t19 16.5q17 15 16 39q0 8 5 24q3 13 15 11q2 0 5 1.5t7.5 4t7.5 3.5zM11 281q4 -7 5 -7q22 -45 74 -64q11 -4 38 -18q4 -2 5 -7q2 -43 42 -66q7 -4 7 -10q2 -17 -1 -28q-7 -39 16 -68q0 -1 4 -11q-12 -2 -13 -2q-19 2 -33 16q-114 111 -144 265zM966 152q-5 45 -5 54
q-1 4 2 8q10 16 6 31q-4 10 8 18q4 3 38 26q-14 -76 -49 -137z" />
    <glyph glyph-name="maxthon" unicode="&#xe64c;" 
d="M417 17q-24 10 -23 36q2 117 0 271q0 19 6.5 26.5t24.5 6.5h200q4 -24 4 -25q0 -173 -1 -285q0 -2 -6 -30h-205zM240 23h-233v720q36 2 37 2h714q111 0 185.5 -74.5t74.5 -184.5q1 -56 0 -452q0 -1 -2 -10h-230v485h-546v-486z" />
    <glyph glyph-name="chrome1" unicode="&#xe64d;" 
d="M88 668q46 -79 51 -87q124 -212 155 -266q5 -8 7 -14q37 -91 125.5 -127t177.5 3q1 0 10 3q-6 -10 -6 -11q-133 -229 -164 -283q-5 -9 -16 -7q-155 28 -266 131.5t-147 255.5q-50 209 68 396q6 10 16 16zM638 574h10h329q10 0 14 -9q58 -155 15.5 -314t-170.5 -263
q-149 -121 -343 -116q-1 0 -14 1q5 11 6 11q170 295 221 382q46 79 28.5 164t-91.5 139q0 1 -5 5zM971 611h-16h-436q-148 -1 -212 -132q-5 -10 -9 -22t-8 -27.5t-6 -23.5q-4 6 -5 7q-135 232 -164 280q-5 8 2 16q134 158 336 183q156 19 297 -55t214 -213zM702 383
q0 -79 -56 -134t-137 -55q-77 0 -132 56.5t-55 134.5q0 80 56.5 134.5t137.5 54.5q77 0 132 -56t54 -135z" />
    <glyph glyph-name="firefox" unicode="&#xe64e;" 
d="M399 -91l21 -14q-153 33 -275 157q-108 111 -132 288l-11 -32q1 109 10 153q-2 -4 -6.5 -10.5t-5.5 -7.5q12 49 19.5 74.5t27 63.5t45.5 63q69 67 161 56q3 0 11 -2l5 -2l-8 -45q34 50 71 76t90 23l-7 -7q-53 -52 -67 -117q-16 -70 31 -134q10 -14 10.5 -32.5t-3.5 -33.5
q-317 -170 -556 -426q257 199 384.5 300.5t144.5 117t15 17.5q-41 39 -91 29t-73 -61q-33 -74 22 -148q7 -9 16 -15l-6 7q-49 63 -30 130q9 31 34 51.5t53 20.5q22 0 41 -13q-38 -43 -30 -125q6 -64 61 -105q7 -6 8 -7q14 -20 51 -26q9 -2 54 -14l9 -5h-33q10 -13 35 -19
q31 -8 90 3q3 1 54 13l-5 -15q22 11 35 28q8 11 13 15q0 1 11 5q2 -9 3 -14q12 4 13 5q35 25 51 74q2 6 24 90q8 -15 13 -26q2 7 5 21t4.5 24.5t1.5 19.5q1 14 -4 90q-1 3 -5 42q25 -13 43 -43q1 89 -18 133q-31 67 -81 109q25 6 87 -37q-26 44 -63 79q-13 12 -39.5 33.5
t-37.5 31.5q77 -30 83 -33q30 -13 60 -42q4 -4 16.5 -15.5t17.5 -16.5l15.5 -15.5t16.5 -17.5t14 -17t14 -19l-4 9q-31 54 -84 102q-13 13 -9 31q46 -34 62 -55l4 9q110 -97 94 -261l3 -1q12 27 17 38q10 -56 11 -59q11 -85 -19 -146q-5 -10 -13 -28.5t-11 -24.5
q-6 -14 -3 -27q11 -46 -13 -87q-49 -83 -127 -124q-3 -1 -10 -9q-2 -1 -5 -7q-35 -58 -118 -78q-100 -24 -172 -23l-7 -1q5 -5 15 -14q-58 -1 -137 28zM331 356q49 -43 102 -46q27 -2 53 14q50 30 107 0q18 -10 23 -29q2 -10 -2.5 -15t-13.5 -3q-23 5 -42 -12
q-7 -5 -20.5 -14t-16.5 -12q-36 -26 -106 -26q-20 -1 -35 12q-57 47 -49 131zM163 721l-14 14q73 79 179 118.5t226 27.5t220 -80q-20 8 -22 9q-11 3 -32.5 9t-30.5 8q-3 1 -32.5 10t-44.5 13q-252 54 -441 -121zM397 503q-45 58 -27 124q3 -3 6.5 -5.5t6 -4.5t7 -3
t6.5 -1.5t7.5 -1t6.5 -0.5t8 -0.5l7 -0.5q43 -1 56 -2q10 -1 13.5 -5.5t2.5 -14.5q-3 -33 -27 -45q-6 -3 -73 -40zM63 645q5 92 50 142q4 -49 38 -78q-45 -19 -88 -64z" />
    <glyph glyph-name="netscape" unicode="&#xe64f;" 
d="M480 -128q-65 10 -69 10q-170 34 -285 166q-10 11 -19.5 23.5t-21.5 29.5t-18 25q122 69 252 94v-55q-2 -13 -11.5 -20t-22.5 -7h-20h-19l-2 -1v-24h191v25h-41q-15 0 -25 9t-11 24q-1 9 -1 24.5v24.5q0 7 10 8q91 14 210 10q149 -6 259 -34q19 -5 40.5 -11.5t49 -16
t40.5 -13.5l8 -4q-45 -71 -47 -74q-116 -158 -306 -201q-2 -1 -66 -10q-1 0 -11 -2h-64zM1024 352q-8 -57 -8 -60q-10 -56 -33 -109q-140 68 -266 88l-1 10q1 194 1 298q0 38 30 42h25h22v25h-191v-25h38q18 0 28.5 -10t10.5 -29q1 -19 1 -41v-48.5v-41.5v-161v-12
q-18 -3 -31 13q-97 117 -289 349q-6 6 -10 6q-31 1 -137 1v-26h40q7 0 12 -6q25 -27 51 -58q5 -6 5 -13q0 -78 -1 -269l-1 -6q-167 -32 -283 -77q-20 49 -28 100q-1 3 -9 60v64l2 9q16 185 144 317q111 113 266 144q4 1 68 10h64q8 -2 9 -2q83 -6 152 -36q255 -111 311 -383
q0 -2 8 -59v-64zM815 600h-52q-16 0 -20.5 -4t-4.5 -20q0 -37 -1 -276v-11q112 -21 234 -77q24 60 29.5 130t-8 143.5t-56.5 147t-111 129.5q-134 113 -313 113t-313 -113q-68 -56 -110.5 -129t-56.5 -145.5t-9.5 -141t27.5 -125.5q111 33 120 36q26 6 124 28q6 1 6 9
q1 205 1 242q0 7 -5 13q-22 26 -39 44q-6 7 -15 7h-49v67h12q124 0 145 1q15 0 24 -12q64 -77 262 -315q1 -1 24 -28v10v256v4q-1 17 -19 17h-25h-25l-9 1v66h233v-67zM549 289l-191 -12v233zM378 454v-154q10 0 55.5 3.5t70.5 5.5z" />
    <glyph glyph-name="opera" unicode="&#xe650;" 
d="M485 896h49q19 -2 20 -3q62 -9 78 -12q23 -4 39 -9q18 -7 47 -19q41 -18 52 -25q28 -18 65 -48q56 -46 97 -119q5 -9 32 -73q1 -4 8 -24q11 -33 11 -36q2 -9 11 -73q0 -7 1 -10q3 -86 2 -95q-1 -24 -14 -91q-1 -6 -12 -40q-15 -43 -18 -50q-8 -19 -26 -51
q-23 -39 -33 -52q-40 -53 -73 -79q-40 -32 -52 -40q-15 -10 -47 -25q-18 -8 -51 -21q-13 -5 -28 -9q-37 -9 -57 -13q-4 0 -54 -7h-42q-48 7 -52 7q-5 1 -52 9l-1 1q-31 11 -33 12q-41 15 -45 17q-33 17 -57 34q-42 31 -68 55q-37 35 -69 86q-26 42 -36 68q-1 3 -4.5 10
t-4.5 11q-9 23 -12 31q-3 9 -9 36q-11 42 -12 48.5t-9 74.5v35q2 24 3 26q6 47 12 80q3 21 9 45q2 9 8 26q5 11 13 29q14 33 17 39q13 25 27 43q33 45 47 60q28 28 65 55q27 19 69 40q7 4 47 18q15 5 28 8q41 9 59 12q4 1 55 8zM707 404q-4 67 -5 74q0 2 -0.5 24.5
t-1.5 34.5q-3 25 -13 82q-5 25 -9 40q-10 29 -20 49q-13 28 -28 49q-24 35 -62 48q-27 9 -43 11q-31 5 -70 -11q-28 -11 -43 -29q-23 -27 -34 -43q-7 -10 -16 -34q-4 -10 -10 -31q-2 -9 -14 -56v-2v-2q-12 -70 -13 -77q-1 -10 -2 -54q0 -13 -1.5 -49t-1.5 -49.5t1 -48.5
q1 -12 1.5 -37t2 -44t6.5 -36q4 -16 7 -42q2 -29 15 -62q1 -5 6 -18t8 -20q10 -29 37 -60q34 -39 86 -45q35 -5 62 4q26 9 42 19q37 25 62 77q12 26 22 59q7 25 15 70q5 27 6 50q1 20 8 159z" />
    <glyph glyph-name="qq" unicode="&#xe651;" 
d="M902 -123h-408l-2 1q-5 0 -12.5 0.5t-14 1t-12.5 1.5q-47 7 -74 13q-78 16 -148 62q-48 32 -79 66q-60 63 -90 118q-46 84 -58 180q0 2 -4 35v62l1 6q3 52 19 106q48 159 182 260q122 93 277 102q60 3 118 -8q197 -38 316 -196q111 -149 99 -337q-7 -105 -56 -200
q-1 0 -5 -9l1 -1q138 -97 306 -137q-212 87 -235 72q-7 -4 -3 -30q1 -2 1 -4l3 -15v-18q-2 -6 -2 -7t-0.5 -6t-0.5 -8q-9 -42 -44 -76q-20 -19 -52 -28q-1 -1 -23 -6zM246 384q2 -30 2 -32q15 -110 101 -175q30 -23 65 -37q6 -2 11 2q12 11 24 18q45 27 96 19q10 -1 12.5 0
t4.5 9q14 49 61 90q17 14 45 24q29 10 51 8h4.5t5 0.5t4.5 0.5q7 0 8 -1q14 -3 17 10q13 53 5 107q-13 79 -66 134q-103 107 -246 77q-90 -18 -147.5 -90t-57.5 -164z" />
    <glyph glyph-name="sogou" unicode="&#xe652;" 
d="M0 350v67q4 32 5 33q34 236 232 364q178 115 379 69q312 -70 395 -386q1 -4 13 -78v-71l-2 -11q-19 -195 -158 -324q-187 -176 -443 -133q-151 26 -262.5 133t-146.5 261q-1 3 -12 76v0zM692 2l0.5 -1t0.5 -2q60 35 62 37q104 69 156 191t29 244q-40 218 -239 309
q-87 40 -167 22q-75 -17 -101 -92q-23 -68 27 -128q30 -37 83 -65l59 -29.5t63 -32.5q88 -50 121 -138q38 -101 -18 -222q-26 -55 -76 -93v0zM298 779q-8 -4 -8 -5q-12 -7 -20 -12q-175 -119 -194 -330q-15 -166 90 -303q74 -97 166 -115q97 -20 160 7q35 15 57.5 47.5
t23.5 71t-26 77.5q-33 43 -100 79q-12 7 -49.5 26t-57.5 31q-70 41 -103.5 106.5t-28.5 133t41 126.5q6 10 14.5 20.5t19.5 22.5t15 17z" />
    <glyph glyph-name="safari-o" unicode="&#xe653;" 
d="M510 -128q-14 66 -14 68q-33 159 -42 200q-2 12 -13 15q-22 7 -40 17q-11 6 -21 -2q-91 -71 -343 -267q-5 -4 -10 -5q6 8 6 9q197 253 266 342q9 11 3 23q-9 16 -17 41q-3 10 -14 13q-66 13 -263 54q-4 1 -6 4q59 12 62 13q150 31 209 43q9 2 13 11q17 35 35 67q5 9 0 17
q-11 16 -60 91q-4 6 -5 11q21 -13 22 -14q66 -43 78 -52q9 -5 18 0q128 72 278 93q-196 -54 -199 -49v3q15 75 55 266l3 12q21 -98 23 -107q29 -141 36 -174q1 -6 10 -10q5 -3 18.5 -8.5t20.5 -8.5q11 -6 21 2q90 70 345 269q6 5 11 6q-6 -9 -7 -9q-200 -258 -267 -343
q-11 -15 -3 -27q9 -14 13 -31q3 -12 19 -16q58 -11 265 -54l6 -2l-8 -3q-191 -40 -262 -54q-13 -3 -18 -15q-11 -28 -33 -67q-5 -10 0 -18q11 -16 60 -91q4 -6 5 -11l-42 28q-52 34 -60 39q-6 5 -15 0q-39 -22 -69 -35q-10 -5 -12 -14q-14 -67 -53 -257q0 -1 -3 -13h-2z
M697 479l-9 -10q-98 -126 -109 -140q-7 -9 -16 -16q-14 -11 -141 -111q-1 0 -11 -9q34 -20 77 -24.5t88.5 10t80.5 48.5q51 48 62.5 119.5t-22.5 132.5zM609 566q-33 21 -76 25.5t-90.5 -10.5t-83 -51t-50.5 -84t-10 -90.5t25 -74.5l7 9q80 102 88 113q30 40 69 69
q11 8 121 94z" />
    <glyph glyph-name="safari" unicode="&#xe654;" 
d="M512 -128q-167 0 -296 108t-158 272q-20 114 14.5 221.5t114 187t189.5 112.5q7 3 8 7q1 6 -6 9q-21 11 -30 29t-2 38q6 20 25.5 31.5t42.5 7.5q35 -5 47.5 -35t-8.5 -54q-3 -3 2 -11q2 -4 9 -4q81 8 147 -8q281 -71 347 -341q66 -272 -152 -463q-59 -51 -136 -79
t-158 -28zM511.5 721q-105.5 0 -195 -52t-141.5 -141t-52 -195q0 -105 52 -194.5t141.5 -141.5t194.5 -52.5t195 51.5t142 142t52 195.5t-52 194.5t-141.5 141t-195 52zM439 813q21 23 6 48q-8 13 -24 18.5t-32 0.5q-14 -4 -23 -15.5t-9 -24.5q1 -14 9.5 -25t22.5 -15
q13 14 23.5 16.5t26.5 -3.5zM173 266q-16 50 -3.5 123t48.5 128q22 -14 25 -16q1 0 11 -1l-4 11q-3 2 -26 17q78 111 210 143q6 -25 7 -27v-2q2 -9 8 -7q5 2 4 11q-1 3 -6 26q46 15 119 3.5t129 -48.5q-14 -22 -16 -26v-10q10 3 10 4l16 24q42 -18 90.5 -88t52.5 -118
q-22 -5 -24 -6q-1 0 -7 -7q9 -5 9 -4q3 0 26 5q24 -133 -44 -248q-21 13 -23 14q-1 0 -11 -1q4 -8 4 -9q3 -2 23 -15q-76 -112 -207 -146q-5 26 -6 29q-1 1 -9 8l-3 -10q0 -4 6 -30q-133 -25 -251 44q16 25 18 29q1 1 0 11l-9 -4q-3 -4 -20 -29q-112 77 -146 209q26 6 29 7
l9 7q-11 5 -12 5q-3 -1 -27 -6zM309 88l1 -2l6 5q143 134 223 209q4 4 8 10l159 265l4 8l-3 -2q-159 -148 -229 -214q-3 -3 -8 -11q-13 -22 -80 -134q-13 -20 -81 -134zM486 234l1 -4q12 -3 13 -2q11 0 17 -13q7 -16 40 -92q1 0 5 -9l4 1q0 93 -1 104q0 26 16 34q4 1 7 6
q5 9 17 4q4 -2 47 -18l1.5 2t2.5 2q-32 29 -35 31q-14 11 -7 25q3 7 3 17q0 8 9 11q26 12 97 44q1 0 7 4q-1 2 -1 3h-114q-11 0 -14 -4t1 -14q18 -50 -15 -92.5t-86 -36.5zM469 554l-2 -1v-10q0 -87 1 -100q0 -15 -11 -19q-7 -3 -16 -12q-5 -5 -13 -2q-6 2 -52 19
q0 -1 -1 -2q33 -33 38 -37q5 -6 2 -13q-2 -4 -4 -12t-4 -11q-4 -9 -9 -11q-14 -7 -100 -47l-9 -5h117q16 0 13 17q-4 25 -3 35q5 40 33 63.5t68 22.5q14 -1 15 4q-13 16 -14 17q-4 8 -39 83q0 1 -10 21zM541 332.5q0 -12.5 -9 -21t-21 -8.5q-12 1 -20.5 9.5t-8.5 20.5t9 21
t21 9t20.5 -9t8.5 -21.5z" />
    <glyph glyph-name="uc" unicode="&#xe655;" 
d="M332 896q9 -3 26.5 -7t31 -8t25.5 -10q69 -32 105 -90t31.5 -127t-49.5 -133q-36 -51 -122 -107q-80 -52 -102 -69q-110 -85 -110 -216q1 -84 46.5 -150.5t123.5 -96.5l12 -10h-32q-75 14 -79 15q-158 39 -218 194q-5 13 -8.5 29.5t-7 37.5t-5.5 31v21q3 20 3 21
q8 78 38 123q14 21 31 43.5t38 49.5t32 42q4 6 18 23.5t23 30t16 24.5q21 40 17 80t-32 69q-27 28 -67 32.5t-80 -14.5q-2 -1 -30 -17q1 11 9 23q59 92 160 136q15 7 31.5 11.5t38.5 10t32 8.5h54zM464 -128q19 14 20 14q118 57 126 180q4 64 -27 118t-86 79
q-129 59 -236 -31q-8 -7 -15 -9q6 17 7 18q34 61 97 88.5t138 12.5q112 -23 175.5 -118.5t41.5 -209.5q-1 -2 -12 -51q26 -3 41.5 -6t36 -11t35.5 -22.5t25 -36.5q-91 -7 -97 -8q-27 -1 -79 -2.5t-61 -2.5q-1 0 -20 -2h-110zM1024 211q-65 24 -146 -16q-57 -27 -111 -10
q-13 3 -20 15q-114 195 -326 193l-9 1q-1 0 -2 5q37 12 38 12q80 16 187 -12q69 -18 137 -63q72 -47 157 -54q6 0 21 -3q56 -9 74 -54v-14zM547 463q96 44 104 48q13 7 83 52q15 10 15 30q0 59 26 103q1 1 16 22q33 -29 46 -84q4 -18 22 -24q57 -21 95 -62t52.5 -87
t13.5 -97q-1 -4 -5.5 -9.5t-8.5 -7.5q-81 -27 -154 8q-13 6 -65.5 32.5t-82.5 38.5q-72 31 -149 32l-8 1v2v2zM398.5 226q62.5 0 106.5 -43.5t44 -105.5t-43.5 -106t-106.5 -44q-62 -1 -106.5 43t-43.5 107q0 62 43.5 105.5t106 43.5zM465 76.5q0 27.5 -19.5 47.5t-47 19.5
t-47 -20.5t-19.5 -47t19.5 -46.5t46.5 -20.5q27 0 47 20t20 47.5z" />
    <glyph glyph-name="world" unicode="&#xe656;" 
d="M499 896h23q66 -7 69 -8q140 -20 254 -116q71 -61 116 -144q48 -87 58 -183q0 -3 5 -44v-34q-6 -51 -7 -54q-10 -80 -41 -141q-23 -46 -53 -90q-31 -48 -88 -94q-69 -56 -149 -84q-75 -27 -143 -30q-2 0 -23 -2h-16q-21 2 -23 2q-90 14 -99 16q-93 23 -174 83
q-53 40 -93 89q-41 51 -68 110q-33 71 -42 150q-1 2 -5 54v16l2 13q11 87 12 92q19 95 80 181q49 70 120 121q69 50 148 74q70 21 130 21zM342 -21q53 -24 122 -32q53 -6 112 2q60 9 114 33q70 31 128 86q9 9 3 19q-2 3 -5 10t-5 10q-6 10 0 22q12 27 16 47q7 32 -14 55
q-13 13 -23 31q-1 3 -14 39q-8 -6 -8 -7q-42 -28 -47 -30q-35 -20 -61 8q-7 8 -19 12q-19 7 -33 30q-5 9 -11 20q-17 34 -11 59t35 48q10 7 12 21q3 23 12 42q6 14 18 15q8 1 15 4t17.5 8.5t13.5 6.5q23 12 37 14q28 4 62 -27q5 -5 13 -1q28 14 43 19q4 1 50 14v3
q-25 59 -70 112q-3 3 -10 2q-3 -1 -8.5 -3t-8.5 -2q-12 -2 -14 -6t2 -15q2 -4 7 -14.5t7 -16.5q1 -1 3 -19q-2 0 -6.5 -1t-6.5 -1t-6 1q-17 9 -32 23q-15 12 -33 11t-30 -16q-3 -5 -10 -15.5t-11 -15.5q-2 -4 -33 -40q-375 139 -795.5 230.5t-859.5 125.5
q1544 -308 1618 -301q11 1 4 9q18 3 19 3h10t10 1q1 0 14 6q-5 12 -6 13q-8 9 -9.5 15.5t2 10.5t13.5 11q1 1 3 2l2 1q2 1 6 4t5.5 4.5t4.5 4t4.5 5t3 5.5t1.5 7q3 26 33 33l29 6l1 3l-59 34q7 -17 5 -26.5t-16 -19.5q-20 -15 -43 -22q-26 -7 -33.5 -1t-3.5 33q3 14 12 53
q3 13 -9 16q-79 19 -151 11q-19 -2 -23 -5.5t-8 -26.5l-3 -13q-16 5 -17 5q-26 10 -41 -12q-2 -4 -30 -53q22 -13 17 -43q-1 -7 -4.5 -10.5t-8.5 -4t-10.5 -0.5h-10.5q15 -9 16 -10q8 -5 9 -9t-5 -12q-2 -3 -7.5 -8.5l-8.5 -8.5q-4 -6 -13 -3q-26 10 -39.5 12.5t-19.5 -2
t-8 -18.5q-2 -22 -24 -27q-13 -3 -36 -4q-19 -1 -24 -6t-6 -24q-1 -16 -2 -26q-2 -17 -15 -17q-14 0 -19 16q-5 20 -10 35q-1 0 -11 12l-14 -42q-9 -23 1 -44q7 -15 16 -44.5t12 -36.5q1 -2 21 -44l5 2q9 7 15 17q0 -2 3.5 -2.5t10.5 -2t13 -4.5q18 -11 35 -10q32 1 45 -28
q3 -9 7 -9q18 -2 30 -12t27 -27q42 -52 96 -69q18 -6 38 -23q8 -7 6.5 -17.5t-11.5 -16.5q-19 -9 -21 -23q-3 -20 -4 -43q-1 -15 -5 -18.5t-19 -4.5q-22 -2 -30 -10q-22 -19 -42 -67zM76 431q-8 -30 0 -95t24 -106q22 -58 57 -105t59 -62q-24 48 -26 53q-6 12 -16 15
q-10 4 -18 16q-22 33 -26 81q0 4 -2.5 26.5t-2 26.5t1.5 26q3 23 -15 40l-5 5q-7 7 -2 16q6 12 4 20q-5 26 -33 43z" />
  </font>
</defs>
</svg>
